<?xml version="1.0" standalone="no"?>
<!DOCTYPE svg PUBLIC "-//W3C//DTD SVG 20010904//EN"
 "http://www.w3.org/TR/2001/REC-SVG-20010904/DTD/svg10.dtd">
<svg version="1.0" xmlns="http://www.w3.org/2000/svg"
 width="260.000000pt" height="260.000000pt" viewBox="0 0 260.000000 260.000000"
 preserveAspectRatio="xMidYMid meet">
<metadata>
Created by potrace 1.11, written by Peter Selinger 2001-2013
</metadata>
<g transform="translate(0.000000,260.000000) scale(0.100000,-0.100000)"
fill="#000000" stroke="none">
<path d="M760 2049 c-202 -29 -392 -173 -471 -356 -61 -141 -74 -214 -73 -403
1 -193 18 -272 86 -410 70 -143 224 -276 361 -311 21 -5 52 -13 71 -18 92 -23
321 -7 411 30 17 7 36 13 42 15 7 1 44 23 83 49 71 47 163 145 182 194 6 14
14 35 19 46 5 11 37 106 73 210 50 146 207 598 241 694 8 21 12 13 54 -110 22
-63 67 -193 101 -289 34 -96 80 -228 102 -294 21 -65 45 -135 53 -155 8 -20
39 -108 70 -196 65 -185 84 -210 148 -202 53 7 77 31 77 78 0 21 -25 106 -59
196 -33 87 -82 221 -111 298 -28 77 -87 235 -130 350 -43 116 -102 274 -130
353 -60 162 -83 202 -123 213 -86 23 -138 -13 -180 -126 -14 -38 -41 -113 -60
-165 -20 -52 -85 -230 -147 -395 -61 -165 -116 -313 -122 -330 -35 -94 -132
-211 -208 -250 -58 -30 -162 -55 -230 -55 -175 0 -330 91 -407 238 -56 105
-72 172 -78 322 -8 192 44 363 145 473 170 186 486 192 666 13 102 -102 155
-251 157 -443 1 -34 5 -59 9 -57 4 3 8 10 8 15 0 6 29 86 65 177 l65 167 -22
55 c-38 97 -118 201 -204 266 -44 34 -137 78 -208 98 -66 20 -243 28 -326 15z"/>
</g>
</svg>
